<svg width="62" height="30" viewBox="0 0 62 30" fill="none" xmlns="http://www.w3.org/2000/svg">
<g clip-path="url(#clip0_147_19)">
<path d="M0 22.396V0.663397C0.105128 0.596243 0.220637 0.547583 0.341674 0.519455C4.17704 0.560135 8.01549 0.472513 11.8416 0.691559C15.4677 0.898089 18.2165 3.16053 19.0907 6.23031C20.5682 11.428 17.3176 16.0749 11.7616 16.5568C9.94241 16.7164 8.09552 16.5818 6.10396 16.5818V22.396H0ZM6.15629 11.9193C7.8308 11.8223 9.44067 11.841 11.0105 11.6063C12.408 11.3936 13.2022 10.2201 13.2576 8.75248C13.313 7.28487 12.6081 5.97997 11.2475 5.72025C9.58842 5.40732 7.86158 5.40732 6.15629 5.28215V11.9193Z" fill="white"/>
<path d="M44.2452 20.703C44.9932 19.1384 45.7043 17.6458 46.4461 16.0874C48.5639 17.3704 50.7401 18.015 53.1041 17.796C53.6644 17.7459 54.3539 17.6677 54.7202 17.3172C55.2561 16.8171 55.6279 16.1617 55.7852 15.4397C55.9176 14.601 55.305 13.9533 54.4739 13.7655C53.6878 13.6108 52.8914 13.5156 52.0914 13.4808C51.4481 13.4369 50.8017 13.4808 49.986 13.4808C50.2138 11.888 49.3857 10.3077 50.5524 8.94649C51.5466 7.78867 52.5962 6.6778 53.7875 5.36352H45.4334V0.575779H60.9103C60.8949 2.4721 61.4736 4.39032 59.6175 5.89548C58.4971 6.80922 57.6136 8.02649 56.5394 9.19996C56.9549 9.35329 57.2596 9.46594 57.5644 9.57234C59.8699 10.3859 61.5044 11.8786 61.8953 14.4039C62.3293 17.1858 61.3997 19.4764 59.1004 21.113C57.0965 22.5399 54.791 22.9279 52.4269 22.8747C49.5643 22.8153 46.8063 22.2833 44.2452 20.703Z" fill="white"/>
<path d="M24.1388 22.3647C24.1388 21.2475 24.0834 20.193 24.1665 19.1509C24.2384 18.7076 24.4553 18.3019 24.7822 17.9994C27.3093 15.5461 29.9104 13.171 32.3913 10.6738C33.149 9.91686 33.7233 8.99131 34.0689 7.97017C34.5553 6.45562 33.6288 5.31971 32.0343 5.15386C30.1474 4.94107 28.6729 5.70148 27.5309 7.21916L22.8522 4.5593C23.9572 3.53291 24.813 2.45646 25.9026 1.78054C29.3132 -0.334825 32.9823 -0.500675 36.6022 1.08585C40.4592 2.77251 41.5796 7.28174 39.1171 10.9336C38.3229 12.107 37.2702 13.1053 36.2606 14.1223C35.174 15.2237 34.0197 16.2533 32.6376 17.5644H40.8809V22.3647H24.1388Z" fill="white"/>
<path d="M24.619 27.2557V29.8999H0.104675V27.2557H24.619Z" fill="white"/>
<path d="M30.8615 29.8341C30.8615 29.8498 30.8615 29.8561 30.8184 29.8561H30.7199H30.6183H30.5167H30.4121C30.3813 29.8561 30.3382 29.7622 30.2858 29.5775C30.2335 29.3929 30.1781 29.299 30.1258 29.2959H29.1531C29.11 29.2959 29.0638 29.3898 29.0146 29.5775C28.9653 29.7622 28.9284 29.8561 28.9007 29.8561H28.4974C28.4728 29.8561 28.4605 29.8561 28.4605 29.831C28.4655 29.802 28.4738 29.7737 28.4851 29.7465L28.9284 28.5199C28.9653 28.4197 29.0792 28.135 29.267 27.6625C29.3008 27.5842 29.347 27.4653 29.4024 27.3089C29.4178 27.2619 29.4332 27.24 29.4517 27.24H29.5502H29.6518C29.6845 27.2434 29.7175 27.2434 29.7503 27.24H29.8487C29.8487 27.24 29.8734 27.2619 29.8918 27.3089C29.9103 27.3558 30.0642 27.7469 30.3197 28.4135C30.6829 29.3522 30.8615 29.8248 30.8615 29.8341ZM30.015 28.8203C29.9748 28.6575 29.9213 28.4983 29.8549 28.3446C29.7503 28.0724 29.6764 27.8909 29.6333 27.8064C29.384 28.451 29.2577 28.789 29.2577 28.8203C29.2577 28.8516 29.3039 28.886 29.3963 28.8922H29.7595C29.9349 28.8954 30.015 28.8703 30.015 28.8203Z" fill="white"/>
<path d="M35.7742 27.5623C35.7742 27.5874 35.7742 27.5967 35.7373 27.5967C35.6418 27.5967 35.4879 27.5968 35.2755 27.5811C35.0631 27.5655 34.9215 27.5811 34.8138 27.5811H34.6815C34.6374 27.5768 34.5931 27.5768 34.5491 27.5811C34.5245 27.5811 34.5121 27.628 34.5121 27.6969V28.1381C34.5121 28.2195 34.5306 28.2633 34.5645 28.2633C34.6815 28.2633 34.8569 28.257 35.0908 28.2445C35.3279 28.2445 35.5033 28.2445 35.6203 28.2445C35.6449 28.2445 35.6572 28.2445 35.6572 28.2758C35.6572 28.3071 35.6572 28.3259 35.6572 28.3665C35.6572 28.4072 35.6572 28.4385 35.6572 28.4604C35.6572 28.4823 35.6572 28.5136 35.6572 28.5605C35.6572 28.6075 35.6572 28.6388 35.6572 28.6607C35.6572 28.6826 35.6418 28.6826 35.6172 28.6826H35.2386H34.86H34.5983C34.5429 28.6826 34.5152 28.7108 34.5152 28.7514C34.5152 28.861 34.5152 29.0268 34.5152 29.2459C34.5152 29.4649 34.5152 29.6308 34.5152 29.7403C34.5152 29.7778 34.4998 29.7966 34.4721 29.7966H34.3644C34.3285 29.7941 34.2925 29.7941 34.2567 29.7966H34.1612H34.0689C34.0381 29.7966 34.0227 29.7966 34.0227 29.7559C34.0227 29.6214 34.0227 29.418 34.0412 29.1301C34.0597 28.8422 34.0566 28.6544 34.0566 28.5042C34.0566 28.354 34.0566 27.9691 34.0197 27.2744V27.2525C34.0197 27.2244 34.0197 27.2119 34.0658 27.2056H34.2936C34.4814 27.2056 34.6568 27.2056 34.82 27.2056C35.0354 27.2056 35.3125 27.1931 35.6511 27.168C35.66 27.1662 35.6693 27.1664 35.6782 27.1685C35.6871 27.1706 35.6954 27.1746 35.7027 27.1802C35.71 27.1858 35.716 27.1929 35.7203 27.2011C35.7247 27.2092 35.7273 27.2182 35.728 27.2275C35.724 27.2775 35.724 27.3277 35.728 27.3777C35.7474 27.4381 35.7629 27.4998 35.7742 27.5623Z" fill="white"/>
<path d="M41.0501 29.8216C41.0501 29.8216 41.0501 29.8373 41.0224 29.8373H40.9177H40.8131H40.6992H40.5884C40.5742 29.8369 40.5605 29.8323 40.549 29.8239C40.5375 29.8155 40.5287 29.8038 40.5237 29.7903C40.4868 29.7059 40.376 29.4493 40.1975 29.0174C40.179 28.9736 40.1359 28.9486 40.0651 28.9361H39.902C39.7357 28.9361 39.6372 28.9361 39.5941 28.9361C39.551 28.9361 39.5572 28.9705 39.5572 29.0299C39.5572 29.0894 39.5572 29.2427 39.5572 29.4148C39.5572 29.5869 39.5572 29.7121 39.5572 29.7966C39.5577 29.8017 39.5571 29.8067 39.5554 29.8115C39.5537 29.8163 39.551 29.8206 39.5474 29.8242C39.5439 29.8278 39.5396 29.8306 39.535 29.8323C39.5303 29.834 39.5252 29.8346 39.5203 29.8341H39.4125H39.3017H39.2063H39.114C39.0832 29.8341 39.0678 29.8185 39.0678 29.7903C39.0678 29.6568 39.0739 29.4534 39.0862 29.1801C39.0862 28.9079 39.1047 28.7045 39.1047 28.5543C39.1047 28.1694 39.1047 27.7563 39.0647 27.3182V27.2901C39.0647 27.265 39.0124 21 39.0647 21L39.6065 27.2525H40.0682C40.298 27.2415 40.5248 27.3099 40.7115 27.4465C40.7994 27.5202 40.8692 27.6137 40.9151 27.7197C40.9611 27.8257 40.982 27.9411 40.9762 28.0567C40.9817 28.202 40.9576 28.3469 40.9054 28.4823C40.8393 28.6098 40.7417 28.7176 40.6222 28.7952C40.6007 28.8109 40.5884 28.8265 40.5884 28.8422C40.5884 28.8578 40.6623 29.0206 40.8039 29.3303C40.8957 29.4888 40.978 29.6529 41.0501 29.8216ZM40.5576 28.1569C40.569 28.0729 40.5576 27.9874 40.5244 27.9096C40.4913 27.8318 40.4379 27.7647 40.3698 27.7157C40.2129 27.6466 40.0417 27.6176 39.8712 27.6312C39.6742 27.6312 39.5634 27.6468 39.5634 27.6781C39.5634 27.7094 39.5634 27.9222 39.5634 28.2101V28.5605H39.5849H39.6926C39.8076 28.5605 39.9307 28.5605 40.062 28.5605C40.3914 28.5856 40.5576 28.4416 40.5576 28.1569Z" fill="white"/>
<path d="M45.1871 29.9061C45.1871 29.9312 45.1686 29.9437 45.1348 29.9437H45.0363H44.9347H44.8362H44.7346C44.7289 29.9441 44.723 29.9433 44.7176 29.9413C44.7122 29.9393 44.7072 29.9361 44.7031 29.9319C44.699 29.9277 44.6959 29.9227 44.6939 29.9172C44.6919 29.9116 44.6911 29.9057 44.6915 29.8999C44.6915 29.7622 44.6977 29.5536 44.71 29.274C44.71 28.9924 44.7285 28.7827 44.7285 28.6482C44.7285 28.5136 44.7285 28.3102 44.71 28.038C44.6915 27.7657 44.6915 27.5623 44.6915 27.4121C44.6915 27.384 44.6915 27.3683 44.7316 27.3683C44.7664 27.3658 44.8014 27.3658 44.8362 27.3683H45.0394C45.0722 27.3658 45.1051 27.3658 45.1379 27.3683C45.1687 27.3683 45.184 27.3683 45.184 27.4027C45.184 27.5404 45.184 27.747 45.184 28.0286C45.184 28.3102 45.1687 28.5074 45.1687 28.6544C45.1687 28.8015 45.1686 29.008 45.184 29.2803C45.1994 29.5525 45.1871 29.7653 45.1871 29.9061Z" fill="white"/>
<path d="M50.3307 29.5212C50.3307 29.5369 50.3307 29.5557 50.2938 29.5838C50.1885 29.7149 50.0555 29.8202 49.9047 29.8917C49.7539 29.9632 49.5891 29.9992 49.4227 29.9969C49.2577 30.0035 49.0936 29.9707 48.9433 29.9011C48.7931 29.8316 48.661 29.7272 48.5577 29.5963C48.3579 29.3255 48.2499 28.9961 48.2499 28.6576C48.2499 28.319 48.3579 27.9896 48.5577 27.7188C48.6615 27.5873 48.794 27.4821 48.9446 27.4115C49.0952 27.3409 49.2599 27.3068 49.4257 27.312C49.5858 27.3034 49.7457 27.3328 49.8926 27.398C50.0396 27.4632 50.1696 27.5623 50.2722 27.6875C50.2875 27.7062 50.2972 27.729 50.2999 27.7532C50.2779 27.8195 50.2457 27.8818 50.2045 27.9378C50.1399 28.038 50.1029 28.0912 50.0875 28.0912C50.0721 28.0912 50.0352 28.0599 49.9798 28.0004C49.9206 27.9364 49.8534 27.8806 49.7797 27.8346C49.6745 27.7743 49.5557 27.743 49.435 27.7438C49.3271 27.7395 49.2198 27.7627 49.1231 27.8114C49.0263 27.86 48.943 27.9326 48.8809 28.0223C48.7571 28.2062 48.6945 28.4255 48.7024 28.6482C48.6953 28.8703 48.7567 29.0891 48.8778 29.274C48.9386 29.3656 49.0215 29.4398 49.1184 29.4896C49.2154 29.5395 49.3233 29.5633 49.4319 29.5588C49.5514 29.5576 49.6687 29.5264 49.7736 29.468C49.8536 29.4234 49.9272 29.3675 49.9921 29.3022C50.0243 29.2688 50.0593 29.2385 50.0968 29.2114C50.1794 29.3105 50.2555 29.4151 50.3246 29.5244L50.3307 29.5212Z" fill="white"/>
<path d="M55.8067 29.7528C55.8067 29.7684 55.7913 29.7747 55.7636 29.7747C55.7298 29.7773 55.6959 29.7773 55.6621 29.7747H55.4589C55.4251 29.7771 55.3911 29.7771 55.3573 29.7747C55.3235 29.7747 55.2804 29.684 55.228 29.4962C55.1757 29.3084 55.1234 29.2177 55.068 29.2177C55.0126 29.2177 54.9079 29.2177 54.7202 29.2177H54.4339C54.2369 29.2177 54.1261 29.2177 54.0953 29.2177C54.0645 29.2177 54.006 29.3147 53.9568 29.4993C53.9075 29.6839 53.8706 29.7747 53.846 29.7747H53.4396C53.415 29.7747 53.4027 29.7747 53.4027 29.7497C53.4076 29.7212 53.4169 29.6937 53.4304 29.6683L53.8706 28.4385C53.9075 28.3384 54.0214 28.0536 54.2092 27.5811C54.243 27.5029 54.2892 27.3871 54.3477 27.2275C54.3477 27.1837 54.3785 27.1587 54.3939 27.1587H54.4954H54.597H54.6955H54.7909C54.7909 27.1587 54.8156 27.1806 54.8371 27.2244C54.8587 27.2682 55.0064 27.6625 55.2619 28.3321C55.6251 29.2709 55.8067 29.7444 55.8067 29.7528ZM54.9664 28.7421C54.9246 28.5783 54.87 28.4182 54.8033 28.2633C54.6986 27.991 54.6247 27.8127 54.5816 27.725C54.3323 28.3697 54.2092 28.7076 54.2092 28.7389C54.2092 28.7702 54.2523 28.8046 54.3446 28.814H54.7078C54.8802 28.814 54.9664 28.789 54.9664 28.7421Z" fill="white"/>
</g>
<defs>
<clipPath id="clip0_147_19">
<rect width="62" height="30" fill="white"/>
</clipPath>
</defs>
</svg>
