<svg width="440" height="387" viewBox="0 0 440 387" fill="none" xmlns="http://www.w3.org/2000/svg">
<path opacity="0.5" d="M483.042 275.787C454.736 262.624 400.538 250.625 396.039 198.299C395.621 193.428 396.542 188.869 394.762 184.103C391.826 176.243 385.829 167.883 384.545 160.002C383.529 153.763 375.603 142.175 364.877 142.175C345.724 142.175 328.085 145.32 315.833 156.206C298.261 171.82 280.86 186.045 269.089 204.076C257.883 221.242 248.513 235.658 243.801 253.927C239.523 270.516 229.746 286.679 225.921 303.365C224 311.744 218.512 319.793 214.937 327.878C213.39 331.379 211.179 338.596 207.53 341.248C198.723 347.651 191.002 354.438 180.071 359.736C163.909 367.57 146.708 373.398 129.623 380.452C99.43 392.918 58.507 382.781 37.5394 365.844C13.5323 346.451 2.58272 324.149 15.4445 299.651C27.6479 276.407 58.2287 263.014 88.4983 250.625C101.855 245.159 113.67 241.291 125.153 233.871C145.09 220.987 164.519 205.409 180.199 190.21C202.094 168.986 219.54 148.427 236.138 125.008C247.236 109.349 243.126 109.336 260.478 84.0472C277.831 58.7587 311.781 22.9018 338.564 15.353C365.347 7.80414 401.184 9.3139 434.38 25.9213C467.576 42.5287 588.49 53.4745 603 53.4745" stroke="#0D4036" stroke-width="2" stroke-linecap="round" stroke-dasharray="12 12"/>
<circle cx="354.5" cy="11.2666" r="10.5" fill="#838988"/>
</svg>
